<svg width="28" height="28" viewBox="0 0 28 28" fill="none" xmlns="http://www.w3.org/2000/svg">
<path d="M19.8333 7.00016L25.6667 7.00016V9.3335H23.3333L23.3333 24.5002C23.3333 24.8096 23.2104 25.1063 22.9916 25.3251C22.7728 25.5439 22.4761 25.6668 22.1667 25.6668L5.83333 25.6668C5.52391 25.6668 5.22716 25.5439 5.00837 25.3251C4.78958 25.1063 4.66666 24.8096 4.66666 24.5002L4.66666 9.3335H2.33333L2.33333 7.00016L8.16666 7.00016V3.50016C8.16666 3.19074 8.28958 2.894 8.50837 2.6752C8.72716 2.45641 9.02391 2.3335 9.33333 2.3335L18.6667 2.3335C18.9761 2.3335 19.2728 2.45641 19.4916 2.6752C19.7104 2.894 19.8333 3.19074 19.8333 3.50016V7.00016ZM21 9.3335L7 9.3335L7 23.3335L21 23.3335L21 9.3335ZM10.5 12.8335H12.8333L12.8333 19.8335H10.5L10.5 12.8335ZM15.1667 12.8335H17.5L17.5 19.8335H15.1667L15.1667 12.8335ZM10.5 4.66683V7.00016L17.5 7.00016V4.66683H10.5Z" fill="#4A5AFF"/>
</svg>
