<svg width="25" height="24" viewBox="0 0 25 24" fill="none" xmlns="http://www.w3.org/2000/svg">
<path d="M3.625 3H21.625C21.8902 3 22.1446 3.10536 22.3321 3.29289C22.5196 3.48043 22.625 3.73478 22.625 4V20C22.625 20.2652 22.5196 20.5196 22.3321 20.7071C22.1446 20.8946 21.8902 21 21.625 21H3.625C3.35978 21 3.10543 20.8946 2.91789 20.7071C2.73036 20.5196 2.625 20.2652 2.625 20V4C2.625 3.73478 2.73036 3.48043 2.91789 3.29289C3.10543 3.10536 3.35978 3 3.625 3ZM20.625 11H4.625V19H20.625V11ZM20.625 9V5H4.625V9H20.625ZM14.625 15H18.625V17H14.625V15Z" fill="#1E1E20"/>
</svg>
