<svg width="20" height="20" viewBox="0 0 20 20" fill="none" xmlns="http://www.w3.org/2000/svg">
<path d="M16.364 13.5362L14.95 12.1202L16.364 10.7062C16.8316 10.2427 17.2031 9.69133 17.4571 9.08383C17.7111 8.47633 17.8425 7.82465 17.844 7.1662C17.8454 6.50775 17.7168 5.8555 17.4655 5.24689C17.2142 4.63828 16.8451 4.08531 16.3795 3.61971C15.9139 3.15412 15.361 2.78507 14.7524 2.53376C14.1437 2.28245 13.4915 2.15382 12.833 2.15526C12.1746 2.1567 11.5229 2.28819 10.9154 2.54216C10.3079 2.79614 9.75656 3.1676 9.29301 3.63523L7.87901 5.05023L6.46401 3.63623L7.88001 2.22223C9.19283 0.909411 10.9734 0.171875 12.83 0.171875C14.6866 0.171875 16.4672 0.909411 17.78 2.22223C19.0928 3.53505 19.8304 5.31562 19.8304 7.17223C19.8304 9.02884 19.0928 10.8094 17.78 12.1222L16.365 13.5362H16.364ZM13.536 16.3642L12.121 17.7782C10.8082 19.0911 9.02762 19.8286 7.17101 19.8286C5.3144 19.8286 3.53383 19.0911 2.22101 17.7782C0.90819 16.4654 0.170654 14.6848 0.170654 12.8282C0.170654 10.9716 0.90819 9.19105 2.22101 7.87823L3.63601 6.46423L5.05001 7.88023L3.63601 9.29423C3.16838 9.75778 2.79692 10.3091 2.54294 10.9166C2.28896 11.5241 2.15748 12.1758 2.15604 12.8343C2.1546 13.4927 2.28323 14.145 2.53454 14.7536C2.78585 15.3622 3.1549 15.9152 3.62049 16.3808C4.08609 16.8463 4.63906 17.2154 5.24767 17.4667C5.85628 17.718 6.50853 17.8466 7.16698 17.8452C7.82543 17.8438 8.47711 17.7123 9.08461 17.4583C9.69211 17.2043 10.2435 16.8329 10.707 16.3652L12.121 14.9512L13.536 16.3652V16.3642ZM12.828 5.75723L14.243 7.17223L7.17201 14.2422L5.75701 12.8282L12.828 5.75823V5.75723Z" fill="#FCFCFC"/>
</svg>
