<svg width="25" height="24" viewBox="0 0 25 24" fill="none" xmlns="http://www.w3.org/2000/svg">
<path d="M16.375 17V16H13.375V13H16.375V15H18.375V17H17.375V19H15.375V21H13.375V18H15.375V17H16.375ZM21.375 21H17.375V19H19.375V17H21.375V21ZM3.375 3H11.375V11H3.375V3ZM5.375 5V9H9.375V5H5.375ZM13.375 3H21.375V11H13.375V3ZM15.375 5V9H19.375V5H15.375ZM3.375 13H11.375V21H3.375V13ZM5.375 15V19H9.375V15H5.375ZM18.375 13H21.375V15H18.375V13ZM6.375 6H8.375V8H6.375V6ZM6.375 16H8.375V18H6.375V16ZM16.375 6H18.375V8H16.375V6Z" fill="#ACACB0" fill-opacity="0.8"/>
</svg>
