<svg width="25" height="24" viewBox="0 0 25 24" fill="none" xmlns="http://www.w3.org/2000/svg">
<path d="M3.465 16.9998C3.04227 16.2688 2.71366 15.4873 2.487 14.6738C2.98031 14.4229 3.39459 14.0404 3.68403 13.5687C3.97346 13.097 4.12676 12.5544 4.12697 12.0009C4.12718 11.4475 3.97428 10.9048 3.6852 10.4328C3.39612 9.96088 2.98212 9.57809 2.489 9.32682C2.94104 7.69231 3.80173 6.19977 4.99 4.98982C5.45409 5.29155 5.99262 5.45898 6.54598 5.4736C7.09934 5.48822 7.64595 5.34945 8.12533 5.07265C8.60471 4.79586 8.99815 4.39182 9.26213 3.90526C9.5261 3.41871 9.65031 2.8686 9.621 2.31582C11.2631 1.89145 12.9862 1.89213 14.628 2.31782C14.599 2.87059 14.7234 3.42061 14.9876 3.90703C15.2518 4.39345 15.6454 4.7973 16.1248 5.07388C16.6043 5.35047 17.1509 5.48901 17.7043 5.47417C18.2576 5.45934 18.796 5.2917 19.26 4.98982C19.839 5.57982 20.353 6.25082 20.785 6.99982C21.218 7.74882 21.542 8.52982 21.763 9.32582C21.2697 9.57672 20.8554 9.9592 20.566 10.4309C20.2765 10.9027 20.1232 11.4453 20.123 11.9987C20.1228 12.5522 20.2757 13.0949 20.5648 13.5668C20.8539 14.0388 21.2679 14.4216 21.761 14.6728C21.309 16.3073 20.4483 17.7999 19.26 19.0098C18.7959 18.7081 18.2574 18.5407 17.704 18.526C17.1507 18.5114 16.604 18.6502 16.1247 18.927C15.6453 19.2038 15.2518 19.6078 14.9879 20.0944C14.7239 20.5809 14.5997 21.131 14.629 21.6838C12.9869 22.1082 11.2638 22.1075 9.622 21.6818C9.65105 21.1291 9.5266 20.579 9.26242 20.0926C8.99824 19.6062 8.60464 19.2023 8.12517 18.9258C7.6457 18.6492 7.09905 18.5106 6.54573 18.5255C5.9924 18.5403 5.45396 18.7079 4.99 19.0098C4.39899 18.4068 3.88659 17.7314 3.465 16.9998ZM9.125 17.1958C10.1906 17.8105 10.9918 18.7968 11.375 19.9658C11.874 20.0128 12.375 20.0138 12.874 19.9668C13.2574 18.7977 14.059 17.8113 15.125 17.1968C16.1902 16.5805 17.4455 16.3793 18.65 16.6318C18.94 16.2238 19.19 15.7888 19.398 15.3338C18.5774 14.4173 18.1241 13.23 18.125 11.9998C18.125 10.7398 18.595 9.56282 19.398 8.66582C19.1885 8.21097 18.9375 7.77646 18.648 7.36782C17.4443 7.62013 16.1898 7.4193 15.125 6.80382C14.0594 6.18919 13.2582 5.20281 12.875 4.03382C12.376 3.98682 11.875 3.98582 11.376 4.03282C10.9926 5.20197 10.191 6.18838 9.125 6.80282C8.05978 7.41914 6.80448 7.62034 5.6 7.36782C5.31056 7.77611 5.06013 8.21069 4.852 8.66582C5.67257 9.58238 6.12588 10.7696 6.125 11.9998C6.125 13.2598 5.655 14.4368 4.852 15.3338C5.06147 15.7887 5.31254 16.2232 5.602 16.6318C6.80572 16.3795 8.06021 16.5803 9.125 17.1958ZM12.125 14.9998C11.3294 14.9998 10.5663 14.6838 10.0037 14.1211C9.44107 13.5585 9.125 12.7955 9.125 11.9998C9.125 11.2042 9.44107 10.4411 10.0037 9.8785C10.5663 9.31589 11.3294 8.99982 12.125 8.99982C12.9206 8.99982 13.6837 9.31589 14.2463 9.8785C14.8089 10.4411 15.125 11.2042 15.125 11.9998C15.125 12.7955 14.8089 13.5585 14.2463 14.1211C13.6837 14.6838 12.9206 14.9998 12.125 14.9998ZM12.125 12.9998C12.3902 12.9998 12.6446 12.8945 12.8321 12.7069C13.0196 12.5194 13.125 12.265 13.125 11.9998C13.125 11.7346 13.0196 11.4803 12.8321 11.2927C12.6446 11.1052 12.3902 10.9998 12.125 10.9998C11.8598 10.9998 11.6054 11.1052 11.4179 11.2927C11.2304 11.4803 11.125 11.7346 11.125 11.9998C11.125 12.265 11.2304 12.5194 11.4179 12.7069C11.6054 12.8945 11.8598 12.9998 12.125 12.9998Z" fill="#ACACB0" fill-opacity="0.8"/>
</svg>
