<svg width="24" height="24" viewBox="0 0 24 24" fill="none" xmlns="http://www.w3.org/2000/svg">
<path d="M1 3.21667C1 1.99222 1.99222 1 3.21667 1L20.7833 1C22.0078 1 23 1.99222 23 3.21667L23 20.7833C23 21.3712 22.7665 21.935 22.3508 22.3508C21.935 22.7665 21.3712 23 20.7833 23L3.21667 23C2.62877 23 2.06495 22.7665 1.64925 22.3508C1.23354 21.935 1 21.3712 1 20.7833L1 3.21667ZM3.22222 3.22222L3.22222 20.7778L20.7778 20.7778L20.7778 3.22222L3.22222 3.22222ZM7.52445 18.8667C6.84109 18.5707 6.18929 18.2066 5.57889 17.78C6.28363 16.6878 7.25107 15.7898 8.39266 15.1683C9.53425 14.5467 10.8135 14.2214 12.1133 14.2222C14.78 14.2222 17.1322 15.5633 18.5333 17.6078C17.9346 18.0507 17.2929 18.4322 16.6178 18.7467C16.1032 18.0333 15.4264 17.4526 14.6432 17.0523C13.86 16.652 12.9929 16.4436 12.1133 16.4444C10.2078 16.4444 8.52445 17.4044 7.52445 18.8667ZM12 13.1111C11.4893 13.1111 10.9836 13.0105 10.5118 12.8151C10.04 12.6197 9.61126 12.3332 9.25014 11.9721C8.88902 11.611 8.60257 11.1823 8.40714 10.7104C8.2117 10.2386 8.11111 9.73292 8.11111 9.22222C8.11111 8.71153 8.2117 8.20583 8.40714 7.73401C8.60257 7.26219 8.88902 6.83348 9.25014 6.47236C9.61126 6.11125 10.04 5.82479 10.5118 5.62936C10.9836 5.43392 11.4893 5.33333 12 5.33333C13.0314 5.33333 14.0206 5.74305 14.7499 6.47236C15.4792 7.20167 15.8889 8.19082 15.8889 9.22222C15.8889 10.2536 15.4792 11.2428 14.7499 11.9721C14.0206 12.7014 13.0314 13.1111 12 13.1111ZM12 10.8889C12.442 10.8889 12.866 10.7133 13.1785 10.4007C13.4911 10.0882 13.6667 9.66425 13.6667 9.22222C13.6667 8.78019 13.4911 8.35627 13.1785 8.04371C12.866 7.73115 12.442 7.55556 12 7.55556C11.558 7.55556 11.1341 7.73115 10.8215 8.04371C10.5089 8.35627 10.3333 8.78019 10.3333 9.22222C10.3333 9.66425 10.5089 10.0882 10.8215 10.4007C11.1341 10.7133 11.558 10.8889 12 10.8889Z" fill="#FCFCFC"/>
</svg>
