<svg width="16" height="16" viewBox="0 0 16 16" fill="none" xmlns="http://www.w3.org/2000/svg">
<path d="M13.3333 8.00016C13.3331 6.81142 12.9359 5.65679 12.2045 4.71962C11.4732 3.78246 10.4497 3.11649 9.29667 2.82745C8.1436 2.53842 6.92701 2.6429 5.84011 3.1243C4.7532 3.6057 3.85827 4.43642 3.29744 5.48456C2.73661 6.53269 2.54202 7.73815 2.74458 8.90951C2.94714 10.0809 3.53522 11.151 4.41546 11.9499C5.29569 12.7489 6.41761 13.2308 7.60306 13.3193C8.78851 13.4077 9.96953 13.0976 10.9586 12.4382L11.6986 13.5475C10.6041 14.2793 9.31656 14.6689 7.99992 14.6668C4.31792 14.6668 1.33325 11.6822 1.33325 8.00016C1.33325 4.31816 4.31792 1.3335 7.99992 1.3335C11.6819 1.3335 14.6666 4.31816 14.6666 8.00016V9.00016C14.6667 9.49933 14.5066 9.98536 14.2101 10.3869C13.9135 10.7884 13.496 11.0842 13.0188 11.2308C12.5417 11.3775 12.0301 11.3673 11.5592 11.2017C11.0883 11.0361 10.6829 10.7239 10.4026 10.3108C9.95763 10.7735 9.38856 11.0978 8.76373 11.2449C8.1389 11.392 7.4849 11.3555 6.88029 11.1399C6.27569 10.9243 5.74621 10.5386 5.35546 10.0294C4.9647 9.5201 4.72931 8.90884 4.67755 8.26903C4.62579 7.62922 4.75986 6.98807 5.06367 6.42261C5.36747 5.85715 5.82809 5.39144 6.39016 5.08143C6.95224 4.77142 7.59188 4.63029 8.23222 4.67501C8.87257 4.71972 9.48638 4.94837 9.99992 5.3335H11.3333V9.00016C11.3333 9.26538 11.4386 9.51973 11.6261 9.70727C11.8137 9.89481 12.068 10.0002 12.3333 10.0002C12.5985 10.0002 12.8528 9.89481 13.0404 9.70727C13.2279 9.51973 13.3333 9.26538 13.3333 9.00016V8.00016ZM7.99992 6.00016C7.46949 6.00016 6.96078 6.21088 6.5857 6.58595C6.21063 6.96102 5.99992 7.46973 5.99992 8.00016C5.99992 8.5306 6.21063 9.0393 6.5857 9.41438C6.96078 9.78945 7.46949 10.0002 7.99992 10.0002C8.53035 10.0002 9.03906 9.78945 9.41413 9.41438C9.78921 9.0393 9.99992 8.5306 9.99992 8.00016C9.99992 7.46973 9.78921 6.96102 9.41413 6.58595C9.03906 6.21088 8.53035 6.00016 7.99992 6.00016Z" fill="#423FFF"/>
</svg>
