<svg width="33" height="32" viewBox="0 0 33 32" fill="none" xmlns="http://www.w3.org/2000/svg">
<path d="M8.87975 4H28.1664C28.52 4 28.8592 4.14048 29.1092 4.39052C29.3593 4.64057 29.4997 4.97971 29.4997 5.33333V26.6667C29.4997 27.0203 29.3593 27.3594 29.1092 27.6095C28.8592 27.8595 28.52 28 28.1664 28H8.87975C8.66029 28 8.44422 27.9459 8.2507 27.8424C8.05719 27.7389 7.89221 27.5892 7.77041 27.4067L0.659746 16.74C0.513561 16.5209 0.435547 16.2634 0.435547 16C0.435547 15.7366 0.513561 15.4791 0.659746 15.26L7.77041 4.59333C7.89221 4.41078 8.05719 4.26111 8.2507 4.15761C8.44422 4.0541 8.66029 3.99997 8.87975 4ZM17.4997 14.1147L13.7291 10.3427L11.8424 12.2293L15.6144 16L11.8424 19.7707L13.7291 21.6573L17.4997 17.8853L21.2704 21.6573L23.1571 19.7707L19.3851 16L23.1571 12.2293L21.2704 10.3427L17.4997 14.1147Z" fill="#1E1E20"/>
</svg>
