<svg width="33" height="32" viewBox="0 0 33 32" fill="none" xmlns="http://www.w3.org/2000/svg">
<path d="M23.5 17.3332V18.6665C23.5 22.3599 22.6147 25.9265 20.9467 29.1279L20.644 29.6879L18.3147 28.3892C19.8613 25.6159 20.728 22.5092 20.824 19.2745L20.8333 18.6665V17.3332H23.5ZM15.5 13.3332H18.1667V18.6665L18.16 19.1719C18.0592 22.8221 16.8029 26.3463 14.572 29.2372L14.264 29.6239L12.1973 27.9385C14.2325 25.453 15.3906 22.3654 15.492 19.1545L15.5 18.6665V13.3332ZM16.8333 7.99985C18.6014 7.99985 20.2971 8.70223 21.5474 9.95247C22.7976 11.2027 23.5 12.8984 23.5 14.6665H20.8333C20.8333 13.6057 20.4119 12.5882 19.6618 11.8381C18.9116 11.0879 17.8942 10.6665 16.8333 10.6665C15.7725 10.6665 14.755 11.0879 14.0049 11.8381C13.2548 12.5882 12.8333 13.6057 12.8333 14.6665V18.6665C12.8333 21.6465 11.74 24.4585 9.80533 26.6358L9.52267 26.9425L7.592 25.1025C9.15194 23.4704 10.0643 21.3262 10.1587 19.0705L10.1667 18.6665V14.6665C10.1667 12.8984 10.869 11.2027 12.1193 9.95247C13.3695 8.70223 15.0652 7.99985 16.8333 7.99985V7.99985ZM16.8333 2.66652C20.0159 2.66652 23.0682 3.9308 25.3186 6.18124C27.569 8.43167 28.8333 11.4839 28.8333 14.6665V18.6665C28.8333 20.9305 28.564 23.1599 28.0373 25.3199L27.852 26.0385L25.2787 25.3372C25.8013 23.4212 26.096 21.4412 26.156 19.4239L26.1667 18.6665V14.6665C26.1667 12.9343 25.6846 11.2363 24.7745 9.76252C23.8644 8.28872 22.562 7.09726 21.0133 6.3215C19.4645 5.54574 17.7305 5.21628 16.0051 5.36999C14.2798 5.5237 12.6312 6.15452 11.244 7.19185L9.344 5.29052C11.4686 3.58822 14.1109 2.66248 16.8333 2.66652V2.66652ZM7.45733 7.17718L9.35867 9.07718C8.21511 10.6015 7.56808 12.4406 7.50533 14.3452L7.5 14.6665L7.50533 17.3332C7.50533 18.8265 7.15333 20.2705 6.48933 21.5692L6.28133 21.9558L3.96533 20.6332C4.472 19.7465 4.768 18.7572 4.82667 17.7225L4.83867 17.3332V14.6665C4.83076 11.9443 5.75486 9.30137 7.45733 7.17718V7.17718Z" fill="#FF554A"/>
</svg>
