<svg width="24" height="24" viewBox="0 0 24 24" fill="none" xmlns="http://www.w3.org/2000/svg">
<path d="M13 20.9999L18 20.9999V22.9999L6.00004 22.9999V20.9999H11V19.9499C9.41452 19.7907 7.88998 19.255 6.5534 18.3874C5.21682 17.5197 4.10689 16.3453 3.31604 14.9619L5.05304 13.9699C5.66382 15.0372 6.51241 15.9493 7.53289 16.6353C8.55337 17.3214 9.71828 17.763 10.9371 17.9258C12.156 18.0886 13.3959 17.9683 14.5607 17.5741C15.7255 17.18 16.7837 16.5226 17.6532 15.6531C18.5227 14.7836 19.1801 13.7254 19.5743 12.5606C19.9684 11.3958 20.0888 10.1558 19.926 8.93699C19.7631 7.71815 19.3215 6.55325 18.6355 5.53277C17.9494 4.51229 17.0373 3.6637 15.97 3.05292L16.962 1.31592C18.4931 2.19046 19.7655 3.45442 20.6503 4.97955C21.5351 6.50468 22.0008 8.23671 22 9.99992C22 15.1849 18.053 19.4489 13 19.9499V20.9999ZM12 16.9999C11.0808 16.9999 10.1705 16.8189 9.32126 16.4671C8.47198 16.1153 7.7003 15.5997 7.05029 14.9497C6.40028 14.2997 5.88467 13.528 5.53288 12.6787C5.1811 11.8294 5.00004 10.9192 5.00004 9.99992C5.00004 9.08066 5.1811 8.17041 5.53288 7.32113C5.88467 6.47186 6.40028 5.70018 7.05029 5.05017C7.7003 4.40016 8.47198 3.88454 9.32126 3.53276C10.1705 3.18098 11.0808 2.99992 12 2.99992C13.8566 2.99992 15.637 3.73742 16.9498 5.05017C18.2625 6.36293 19 8.1434 19 9.99992C19 11.8564 18.2625 13.6369 16.9498 14.9497C15.637 16.2624 13.8566 16.9999 12 16.9999ZM12 14.9999C13.3261 14.9999 14.5979 14.4731 15.5356 13.5355C16.4733 12.5978 17 11.326 17 9.99992C17 8.67384 16.4733 7.40207 15.5356 6.46438C14.5979 5.5267 13.3261 4.99992 12 4.99992C10.674 4.99992 9.40219 5.5267 8.46451 6.46438C7.52682 7.40207 7.00004 8.67384 7.00004 9.99992C7.00004 11.326 7.52682 12.5978 8.46451 13.5355C9.40219 14.4731 10.674 14.9999 12 14.9999Z" fill="#FCFCFC"/>
</svg>
